{"title":"A.Perfect.Getaway.2009.720p.BluRay.x264.HUN.ENG","uid":9008560,"size":4828685438,"categoryP":"video","categoryS":"hd___movies","magnet":"?xt=urn:btih:6803c7c0b6211ff3300ea365c755dd6ca7a7aee5&amp;dn=A.Perfect.Getaway.2009.720p.BluRay.x264.HUN.ENG&amp;tr=udp%3A%2F%2Ftracker.openbittorrent.com%3A80&amp;tr=udp%3A%2F%2Fopen.demonii.com%3A1337&amp;tr=udp%3A%2F%2Ftracker.coppersurfer.tk%3A6969&amp;tr=udp%3A%2F%2Fexodus.desync.com%3A6969","seeders":1,"leechers":0,"uploader":"rinoceros","files":-1,"time":1381082677,"description":"General\nUnique ID                                : 233752003846695328726548932897061966986 (0xAFDAFF95A0AF1F95A9EF19A7387F948A)\nComplete name                            : F:TorrentA.Perfect.Getaway.720p.BluRay.x264.HUN.ENGA Perfect Getaway (2009) 720p.mkv\nFormat                                   : Matroska\nFormat version                           : Version 4 / Version 2\nFile size                                : 4.50 GiB\nDuration                                 : 1h 47mn\nOverall bit rate                         : 5 980 Kbps\nEncoded date                             : UTC 2013-10-06 15:04:50\nWriting application                      : mkvmerge v6.4.1 ('Omega Point') built on Sep 16 2013 22:05:10\nWriting library                          : libebml v1.3.0 + libmatroska v1.4.1\n\nVideo\nID                                       : 1\nFormat                                   : AVC\nFormat/Info                              : Advanced Video Codec\nFormat profile                           : &lt;a class=&quot;__cf_email__&quot; href=&quot;/cdn-cgi/l/email-protection&quot; data-cfemail=&quot;95ddfcf2fdd5d9a1bba4&quot;&gt;[email&amp;#160;protected]&lt;/a&gt;&lt;script cf-hash='f9e31' type=&quot;text/javascript&quot;&gt;\n/* &lt;![CDATA[ */!function(){try{var t=&quot;currentScript&quot;in document?document.currentScript:function(){for(var t=document.getElementsByTagName(&quot;script&quot;),e=t.length;e--;)if(t[e].getAttribute(&quot;cf-hash&quot;))return t[e]}();if(t&amp;&amp;t.previousSibling){var e,r,n,i,c=t.previousSibling,a=c.getAttribute(&quot;data-cfemail&quot;);if(a){for(e=&quot;&quot;,r=parseInt(a.substr(0,2),16),n=2;a.length-n;n+=2)i=parseInt(a.substr(n,2),16)^r,e+=String.fromCharCode(i);e=document.createTextNode(e),c.parentNode.replaceChild(e,c)}}}catch(u){}}();/* ]]&gt; */&lt;/script&gt;\nFormat settings, CABAC                   : Yes\nFormat settings, ReFrames                : 5 frames\nCodec ID                                 : V_MPEG4/ISO/AVC\nDuration                                 : 1h 47mn\nBit rate                                 : 4 303 Kbps\nWidth                                    : 1 280 pixels\nHeight                                   : 544 pixels\nDisplay aspect ratio                     : 2.35:1\nFrame rate mode                          : Constant\nFrame rate                               : 23.976 fps\nColor space                              : YUV\nChroma subsampling                       : 4:2:0\nBit depth                                : 8 bits\nScan type                                : Progressive\nBits/(Pixel*Frame)                       : 0.258\nStream size                              : 3.13 GiB (70%)\nTitle                                    : A Perfect Getaway (2009) 720p\nWriting library                          : x264 core 79 r1342 e8501ef\nEncoding settings                        : cabac=1 // deblock=1:0:0 / analyse=0x3:0x133 / me=umh / subme=7 / psy=1 / psy_rd=1.0:0.0 // me_range=16 / chroma_me=1 / trellis=1 / 8x8dct=1 / cqm=0 / deadzone=21,11 / chroma_qp_offset=-2 / threads=12 / nr=0 / decimate=1 / mbaff=0 / constrained_intra=0 / bframes=3 / b_pyramid=0 / b_adapt=1 / b_bias=0 / direct=1 / wpredb=1 / wpredp=2 / keyint=250 / keyint_min=25 / scenecut=40 / rc_lookahead=40 / rc=2pass / mbtree=1 / bitrate=4303 / ratetol=1.0 / qcomp=0.60 / qpmin=10 / qpmax=51 / qpstep=4 / cplxblur=20.0 / qblur=0.5 / ip_ratio=1.40 / aq=1:1.00\nDefault                                  : Yes\nForced                                   : No\n\nAudio #1\nID                                       : 2\nFormat                                   : AC-3\nFormat/Info                              : Audio Coding 3\nMode extension                           : CM (complete main)\nFormat settings, Endianness              : Big\nCodec ID                                 : A_AC3\nDuration                                 : 1h 47mn\nBit rate mode                            : Constant\nBit rate                                 : 192 Kbps\nChannel(s)                               : 2 channels\nChannel positions                        : Front: L R\nSampling rate                            : 48.0 KHz\nBit depth                                : 16 bits\nCompression mode                         : Lossy\nStream size                              : 148 MiB (3%)\nTitle                                    : stereo\nLanguage                                 : Hungarian\nDefault                                  : Yes\nForced                                   : No\n\nAudio #2\nID                                       : 3\nFormat                                   : DTS\nFormat/Info                              : Digital Theater Systems\nMode                                     : 16\nFormat settings, Endianness              : Big\nCodec ID                                 : A_DTS\nDuration                                 : 1h 47mn\nBit rate mode                            : Constant\nBit rate                                 : 1 509 Kbps\nChannel(s)                               : 6 channels\nChannel positions                        : Front: L C R, Side: L R, LFE\nSampling rate                            : 48.0 KHz\nBit depth                                : 24 bits\nCompression mode                         : Lossy\nStream size                              : 1.13 GiB (25%)\nTitle                                    : DTS\nLanguage                                 : English\nDefault                                  : No\nForced                                   : No\n\nText\nID                                       : 4\nFormat                                   : UTF-8\nCodec ID                                 : S_TEXT/UTF8\nCodec ID/Info                            : UTF-8 Plain Text\nTitle                                    : full\nLanguage                                 : Hungarian\nDefault                                  : Yes\nForced                                   : No\n &lt;a href=&quot;\nhttp://port.hu/pokoli_edenkert_a_perfect_getaway/pls/fi/films.film_page?i_topic_id=2&amp;i_film_id=106897&amp;i_city_id=-1&amp;i_county_id=-1&quot; rel=&quot;nofollow&quot; target=&quot;_NEW&quot;&gt;\nhttp://port.hu/pokoli_edenkert_a_perfect_getaway/pls/fi/films.film_page?i_topic_id=2&amp;i_film_id=106897&amp;i_city_id=-1&amp;i_county_id=-1&lt;/a&gt;","torrent":{"xt":"urn:btih:6803c7c0b6211ff3300ea365c755dd6ca7a7aee5","amp;dn":"A.Perfect.Getaway.2009.720p.BluRay.x264.HUN.ENG","amp;tr":["udp%3A%2F%2Ftracker.openbittorrent.com%3A80","udp%3A%2F%2Fopen.demonii.com%3A1337","udp%3A%2F%2Ftracker.coppersurfer.tk%3A6969","udp%3A%2F%2Fexodus.desync.com%3A6969"],"infoHash":"6803c7c0b6211ff3300ea365c755dd6ca7a7aee5","infoHashBuffer":{"type":"Buffer","data":[104,3,199,192,182,33,31,243,48,14,163,101,199,85,221,108,167,167,174,229]},"announce":[],"urlList":[]}}